<svg width="232" height="271" viewBox="0 0 232 271" fill="none" xmlns="http://www.w3.org/2000/svg">
<path d="M202.206 261.111H17.9834C7.14002 261.111 -1.23521 249.662 0.150198 236.742L15.105 89.2674C16.2517 78.4465 23.8916 70.3516 32.9607 70.3516H42.2236C42.2236 70.4379 160.089 70.3516 160.089 70.3516C160.111 70.3953 187.251 70.3516 187.251 70.3516C196.319 70.3516 203.959 78.4454 205.107 89.2674L220.062 236.742C221.446 249.662 213.048 261.111 202.206 261.111Z" fill="#007AF7"></path>
<path d="M174.919 87.9896C175.114 90.6516 173.015 92.9024 170.353 92.9024C167.928 92.9024 165.938 91.0406 165.764 88.6386L164.466 70.3504L164.445 70.1991C162.475 42.6917 139.967 20.9625 112.676 19.6858C111.832 19.6421 110.988 19.6208 110.144 19.6208C81.8996 19.6208 58.4395 42.0427 55.7987 70.3504C55.7337 70.7617 55.69 71.1731 55.6687 71.5845L54.4346 88.6386C54.2833 91.0406 52.2701 92.9024 49.8681 92.9024C47.206 92.9024 45.1066 90.6516 45.3016 87.9896L46.5133 70.9142C46.5357 70.7192 46.5357 70.5465 46.5783 70.3515C49.0454 39.3381 73.0692 13.6264 104.104 10.7267C106.117 10.5316 108.13 10.4453 110.099 10.4453C143.321 10.4453 171.217 36.4171 173.598 69.5299L173.663 70.3526L174.919 87.9896Z" fill="#007AF7"></path>
<path d="M99.1285 124.669C99.1285 127.165 98.6802 129.718 97.7397 132.201L78.0481 183.872L66.3786 214.491C62.1988 225.431 49.9678 230.915 39.0279 226.75C28.0881 222.585 22.6036 210.339 26.7688 199.4L58.1446 117.11C61.3705 108.666 69.4072 103.477 77.9495 103.477H78.1456C80.5858 103.505 83.0685 103.953 85.4807 104.865C93.9388 108.091 99.1285 116.128 99.1285 124.669Z" fill="#007AF7"></path>
<path d="M96.3208 124.674C96.3208 117.258 91.813 110.287 84.476 107.489C82.5097 106.746 80.4926 106.358 78.5049 106.293L78.1076 106.284H77.9434C70.5245 106.284 63.5546 110.793 60.7569 118.116L60.7558 118.115L29.381 200.401L29.3821 200.402C25.767 209.897 30.5277 220.523 40.0195 224.137C49.5122 227.751 60.1265 222.993 63.7551 213.496L95.1157 131.208C95.9333 129.048 96.3208 126.833 96.3208 124.674ZM101.925 124.674C101.925 127.506 101.416 130.396 100.354 133.199L100.352 133.205L68.9917 215.495L68.9906 215.497C64.2596 227.879 50.4119 234.09 38.0251 229.374C25.6374 224.658 19.4291 210.792 24.1444 198.408L55.5203 116.117L55.5214 116.115L55.6965 115.669C59.46 106.369 68.4291 100.68 77.9434 100.68H78.1722L78.6899 100.692C81.1115 100.772 83.5621 101.217 85.9549 102.062L86.466 102.249L86.4737 102.253L86.9203 102.428C96.2352 106.191 101.925 115.16 101.925 124.674Z" fill="white"></path>
<path d="M129.316 199.4L109.82 148.248L97.9544 117.11C94.7285 108.666 86.6918 103.477 78.1495 103.477H77.9534C75.4987 103.505 73.0159 103.953 70.6038 104.865C62.1456 108.091 56.957 116.128 56.957 124.67C56.957 127.166 57.4054 129.72 58.3458 132.202L78.052 183.873L89.7215 214.492C92.9754 223.048 101.18 228.266 109.821 228.125C112.22 228.097 114.673 227.649 117.059 226.751C127.996 222.585 133.481 210.341 129.316 199.4Z" fill="white"></path>
<path d="M78.1629 100.68C87.6772 100.68 96.6464 106.369 100.41 115.669L100.585 116.115L100.586 116.117L131.947 198.407L131.948 198.408L132.16 198.989C136.467 211.224 130.261 224.731 118.069 229.375L118.059 229.379C115.373 230.39 112.6 230.899 109.878 230.932L109.879 230.933C100.096 231.091 90.8023 225.187 87.1158 215.495L55.7409 133.206L55.7387 133.2C54.6771 130.397 54.168 127.508 54.168 124.676C54.168 115.01 60.0387 105.906 69.6184 102.253L69.625 102.249C72.3499 101.219 75.1587 100.711 77.9342 100.68H78.1629ZM59.7724 124.676C59.7724 126.834 60.1599 129.049 60.9775 131.209L80.6838 182.88L92.3535 213.499V213.501L92.6304 214.189C95.62 221.199 102.525 225.446 109.788 225.329H109.802L110.191 225.32C112.137 225.255 114.128 224.869 116.075 224.138L116.516 223.964C125.711 220.192 130.268 209.751 126.71 200.403L95.3494 118.115C92.5518 110.792 85.5819 106.284 78.1629 106.284H77.9988L77.5981 106.293C75.5974 106.359 73.5798 106.745 71.6139 107.488L71.615 107.489C64.2787 110.287 59.7724 117.257 59.7724 124.676Z" fill="white"></path>
<path d="M145.32 123.648C145.32 111.886 154.855 102.352 166.617 102.352C178.379 102.352 187.914 111.886 187.914 123.648V206.593C187.914 218.355 178.379 227.889 166.617 227.889C154.855 227.889 145.32 218.355 145.32 206.593V123.648Z" fill="white"></path>
<path d="M185.105 123.653C185.105 113.439 176.825 105.159 166.611 105.159C156.396 105.159 148.116 113.439 148.116 123.653V206.598C148.116 216.812 156.396 225.092 166.611 225.092C176.825 225.092 185.105 216.812 185.105 206.598V123.653ZM190.71 206.598C190.71 219.907 179.92 230.697 166.611 230.697C153.301 230.697 142.512 219.907 142.512 206.598V123.653C142.512 110.344 153.301 99.5547 166.611 99.5547C179.92 99.5547 190.71 110.344 190.71 123.653V206.598Z" fill="white"></path>
</svg>